<?xml version="1.0" standalone="no"?>
<!DOCTYPE svg PUBLIC "-//W3C//DTD SVG 20010904//EN"
 "http://www.w3.org/TR/2001/REC-SVG-20010904/DTD/svg10.dtd">
<svg version="1.0" xmlns="http://www.w3.org/2000/svg"
 width="512.000000pt" height="512.000000pt" viewBox="0 0 512.000000 512.000000"
 preserveAspectRatio="xMidYMid meet">
<metadata>
Created by potrace 1.16, written by Peter Selinger 2001-2019
</metadata>
<g transform="translate(0.000000,512.000000) scale(0.100000,-0.100000)"
fill="#000000" stroke="none">
<path d="M2478 4649 c-37 -4 -93 -15 -125 -24 -55 -16 -2086 -881 -2184 -931
-60 -30 -133 -112 -153 -171 -9 -26 -16 -79 -16 -122 0 -63 5 -87 29 -136 42
-91 94 -130 263 -202 l143 -61 3 -580 2 -581 -21 -6 c-33 -11 -98 -74 -122
-119 -32 -61 -30 -156 4 -222 l26 -50 -22 -28 c-12 -15 -27 -44 -34 -64 -15
-49 -74 -685 -68 -743 5 -54 35 -102 80 -127 27 -14 61 -17 232 -17 224 0 246
6 292 75 30 44 30 88 -7 483 -28 311 -30 320 -59 372 l-31 54 25 53 c53 114
20 240 -83 308 l-52 34 0 543 0 543 32 -13 c18 -8 111 -47 206 -88 l172 -73 0
-338 0 -337 29 -86 c32 -96 72 -162 151 -248 184 -201 526 -361 912 -427 642
-109 1321 20 1718 325 126 97 217 219 261 350 l29 86 0 337 0 337 431 185
c481 205 499 216 550 325 24 49 29 73 29 136 0 43 -7 96 -16 122 -20 59 -93
141 -153 171 -25 13 -515 225 -1089 470 -656 281 -1072 454 -1120 466 -97 23
-178 29 -264 19z m216 -174 c62 -16 2167 -915 2204 -941 32 -22 62 -87 62
-132 0 -40 -37 -109 -69 -129 -9 -6 -502 -218 -1094 -472 -1199 -514 -1153
-497 -1316 -473 -70 10 -181 54 -890 358 -446 191 -809 350 -806 352 3 3 321
60 707 127 l701 123 43 -33 c157 -120 480 -122 643 -4 129 93 113 249 -34 335
-23 13 -80 34 -126 45 -69 18 -102 21 -189 16 -172 -9 -289 -58 -347 -147 -13
-19 -26 -39 -31 -45 -4 -5 -380 -75 -835 -154 l-827 -143 -88 37 c-169 72
-186 82 -215 127 -17 27 -27 55 -27 80 0 45 30 110 62 132 34 24 2140 924
2200 940 71 19 200 20 272 1z m-25 -1001 c75 -18 131 -49 131 -70 0 -23 -105
-66 -177 -73 -34 -4 -92 -4 -126 0 -72 7 -177 50 -177 72 0 22 47 49 120 68
82 23 146 23 229 3z m-924 -1033 c297 -128 569 -242 605 -254 55 -19 87 -22
210 -22 123 0 155 3 210 22 36 12 308 126 605 254 297 127 548 234 559 237 17
5 18 -2 14 -129 -6 -156 -21 -208 -92 -306 -53 -72 -160 -165 -246 -214 -95
-53 -145 -92 -148 -118 -8 -55 43 -109 92 -96 76 22 229 120 322 207 l65 61
-21 -54 c-112 -282 -546 -510 -1085 -569 -129 -14 -421 -14 -550 0 -540 59
-973 287 -1085 570 l-22 55 64 -62 c193 -185 528 -324 935 -388 205 -33 690
-29 754 6 47 24 49 106 4 135 -22 14 -43 14 -207 3 -482 -33 -959 73 -1273
284 -85 57 -195 172 -231 242 -41 78 -54 142 -54 272 0 96 2 105 18 100 9 -2
260 -109 557 -236z m-1182 -771 c61 -48 30 -139 -47 -140 -80 -1 -106 121 -33
150 34 14 52 12 80 -10z m17 -338 c19 -20 30 -43 34 -73 7 -49 56 -591 56
-614 0 -13 -25 -15 -156 -15 l-155 0 5 43 c4 23 18 170 32 326 14 157 30 294
36 305 31 61 101 74 148 28z"/>
<path d="M3181 1852 c-111 -32 -138 -56 -127 -117 6 -28 15 -39 41 -52 32 -15
39 -15 122 7 48 13 101 29 116 37 53 26 58 95 10 133 -32 25 -47 25 -162 -8z"/>
</g>
</svg>
