<?xml version="1.0" standalone="no"?>
<!DOCTYPE svg PUBLIC "-//W3C//DTD SVG 20010904//EN"
 "http://www.w3.org/TR/2001/REC-SVG-20010904/DTD/svg10.dtd">
<svg version="1.0" xmlns="http://www.w3.org/2000/svg"
 width="512.000000pt" height="512.000000pt" viewBox="0 0 512.000000 512.000000"
 preserveAspectRatio="xMidYMid meet">
<metadata>
Created by potrace 1.16, written by Peter Selinger 2001-2019
</metadata>
<g transform="translate(0.000000,512.000000) scale(0.100000,-0.100000)"
fill="#000000" stroke="none">
<path d="M2415 4689 c-111 -15 -211 -46 -330 -104 -284 -139 -478 -378 -567
-703 -18 -65 -22 -105 -22 -252 0 -158 3 -184 27 -275 108 -400 422 -696 829
-779 159 -33 393 -18 553 36 335 111 598 394 692 743 24 91 27 117 27 275 0
147 -4 187 -22 252 -89 325 -282 564 -567 703 -201 99 -399 132 -620 104z
m325 -235 c311 -69 558 -308 642 -619 27 -104 30 -296 5 -399 -60 -244 -228
-456 -452 -568 -27 -14 -88 -38 -135 -54 -78 -26 -97 -28 -240 -28 -143 0
-162 2 -240 28 -47 16 -107 40 -135 54 -224 112 -392 324 -452 568 -25 103
-22 295 5 399 28 101 86 221 151 306 193 256 537 382 851 313z"/>
<path d="M2440 2353 c-364 -25 -682 -134 -975 -334 -453 -308 -761 -810 -823
-1341 -11 -87 5 -148 48 -193 67 -70 -63 -65 1863 -65 1275 0 1750 3 1778 11
50 15 108 64 125 105 32 76 3 274 -71 499 -197 601 -683 1069 -1289 1245 -212
61 -450 88 -656 73z m445 -252 c613 -130 1094 -556 1289 -1141 19 -58 42 -143
51 -190 9 -47 18 -95 21 -108 l4 -22 -1694 0 -1695 0 6 38 c22 157 90 368 164
513 258 503 719 836 1279 925 130 20 447 12 575 -15z"/>
</g>
</svg>
