<?xml version="1.0" standalone="no"?>
<!DOCTYPE svg PUBLIC "-//W3C//DTD SVG 20010904//EN"
 "http://www.w3.org/TR/2001/REC-SVG-20010904/DTD/svg10.dtd">
<svg version="1.0" xmlns="http://www.w3.org/2000/svg"
 width="512.000000pt" height="512.000000pt" viewBox="0 0 512.000000 512.000000"
 preserveAspectRatio="xMidYMid meet">
<metadata>
Created by potrace 1.16, written by Peter Selinger 2001-2019
</metadata>
<g transform="translate(0.000000,512.000000) scale(0.100000,-0.100000)"
fill="#000000" stroke="none">
<path d="M1020 5101 c-53 -14 -65 -21 -63 -37 1 -15 163 -662 167 -671 2 -2
169 39 174 42 1 1 -37 156 -85 344 -98 386 -78 352 -193 322z"/>
<path d="M3535 5078 c-24 -21 -28 -38 -54 -208 -28 -191 -40 -227 -78 -236
-51 -13 -71 4 -184 154 -111 148 -135 171 -177 172 -32 0 -51 -11 -184 -112
l-117 -88 -193 -3 c-151 -3 -216 -9 -298 -26 -353 -75 -663 -253 -891 -514
-226 -258 -372 -593 -396 -909 l-6 -78 -32 0 c-54 0 -71 -29 -104 -189 -17
-79 -31 -145 -31 -147 0 -2 -55 35 -122 81 -175 122 -163 125 -350 -63 -187
-186 -184 -174 -68 -347 44 -65 78 -120 75 -123 -2 -3 -66 -18 -142 -34 -195
-41 -183 -22 -183 -283 0 -261 -12 -242 183 -284 76 -16 141 -31 143 -34 3 -3
-31 -58 -75 -123 -118 -171 -120 -159 67 -346 187 -187 175 -185 346 -67 65
44 120 78 123 75 3 -3 19 -67 35 -143 23 -110 34 -143 54 -163 l24 -25 205 0
205 0 24 25 c20 20 31 53 54 163 16 76 32 140 34 143 3 3 59 -31 124 -76 157
-107 168 -107 269 -9 l73 71 4 -164 c3 -149 5 -167 27 -208 35 -66 60 -97 103
-126 l38 -27 0 -268 c0 -321 6 -346 99 -440 92 -92 122 -99 411 -99 279 0 317
8 403 89 100 93 117 163 117 489 l0 222 58 58 c95 93 104 124 112 427 8 279
13 303 78 390 20 28 76 78 122 113 145 107 191 145 187 156 -5 14 -100 124
-109 125 -16 2 -237 -168 -293 -224 -58 -59 -108 -139 -142 -227 -13 -34 -18
-97 -22 -298 -7 -284 -10 -295 -78 -347 l-36 -28 -381 -3 c-379 -3 -381 -2
-425 20 -84 43 -85 46 -92 326 -8 275 -16 323 -75 432 -46 83 -105 145 -224
230 -132 96 -203 158 -283 248 -468 529 -483 1310 -36 1858 246 301 648 508
1004 517 89 2 90 2 93 -23 2 -14 52 -90 112 -170 59 -80 111 -155 114 -167 10
-31 -19 -81 -51 -89 -14 -4 -94 3 -177 15 -200 28 -236 28 -265 -3 -20 -21
-28 -58 -62 -293 -21 -147 -39 -276 -39 -285 0 -9 10 -29 23 -43 21 -25 36
-29 207 -54 102 -15 195 -33 206 -39 33 -18 49 -64 32 -95 -7 -14 -80 -76
-162 -139 -166 -125 -181 -145 -152 -204 18 -39 303 -421 331 -444 9 -8 34
-15 55 -15 31 0 59 17 188 113 138 103 154 113 188 110 30 -2 42 -9 56 -34 17
-29 17 -36 -9 -221 -26 -183 -26 -191 -9 -217 9 -15 27 -31 39 -35 12 -5 142
-26 290 -46 235 -34 270 -37 293 -25 14 8 30 22 35 32 5 9 21 97 35 195 30
210 38 228 105 228 l44 0 113 -150 c116 -154 149 -183 196 -171 33 8 461 328
469 351 10 25 8 64 -4 87 -6 12 -58 83 -115 160 -62 83 -104 148 -104 162 0
13 9 35 21 50 26 33 45 33 254 5 171 -24 206 -22 230 14 16 24 85 475 85 554
0 33 -6 50 -25 68 -13 14 -28 25 -34 25 -49 0 -360 54 -378 65 -30 20 -40 62
-22 94 8 14 75 72 149 128 74 56 143 112 153 124 40 49 29 73 -150 311 -173
229 -192 248 -246 234 -14 -3 -92 -56 -173 -116 -162 -120 -186 -129 -229 -85
-31 30 -31 34 0 244 26 183 25 208 -17 235 -22 14 -484 86 -554 86 -20 0 -43
-9 -59 -22z m324 -194 l133 -18 -5 -51 c-3 -27 -11 -94 -18 -148 -15 -113 -6
-167 39 -232 44 -63 108 -97 196 -103 90 -6 127 11 270 119 53 39 98 70 100
68 45 -56 186 -250 186 -256 -1 -4 -38 -35 -83 -68 -174 -127 -201 -166 -202
-285 0 -93 29 -158 93 -207 51 -39 82 -48 237 -70 66 -9 122 -17 124 -19 3 -3
-39 -316 -44 -322 -1 -1 -49 5 -105 13 -197 30 -270 20 -345 -47 -60 -52 -80
-101 -80 -193 0 -94 4 -102 110 -244 41 -56 75 -103 75 -105 0 -6 -244 -187
-254 -187 -5 -1 -48 50 -95 112 -73 96 -95 118 -142 142 -95 49 -210 37 -288
-29 -60 -50 -80 -99 -103 -255 -11 -79 -21 -145 -22 -146 -2 -3 -316 43 -320
48 -2 2 5 63 15 134 22 146 18 197 -17 267 -41 81 -126 129 -228 130 -79 0
-111 -15 -241 -111 l-108 -80 -94 124 c-51 69 -93 129 -93 134 0 5 42 40 93
78 119 91 141 111 168 164 51 95 19 250 -64 313 -53 40 -96 54 -232 73 -79 11
-129 22 -132 30 -5 14 33 302 41 310 3 3 60 -3 126 -12 184 -26 257 -14 329
57 55 54 76 104 75 183 0 86 -14 117 -119 255 l-74 98 130 98 131 98 19 -26
c157 -215 204 -256 308 -265 84 -8 142 11 200 63 59 53 77 94 96 227 26 180
23 170 53 164 15 -3 87 -13 161 -23z m-2846 -2176 c21 -71 21 -78 -1 -78 -35
0 -137 -41 -189 -75 -102 -68 -174 -165 -214 -287 -27 -86 -24 -232 8 -319 26
-72 90 -167 145 -214 50 -42 163 -99 228 -114 197 -45 427 46 538 214 l29 43
84 -60 c110 -78 162 -130 196 -195 l28 -53 -85 -85 c-46 -47 -89 -85 -93 -85
-5 0 -44 24 -86 53 -42 30 -90 61 -108 70 -69 36 -177 9 -220 -56 -13 -18 -31
-74 -42 -129 -35 -166 -19 -148 -126 -148 -81 0 -94 2 -99 18 -2 9 -14 61 -26
115 -11 55 -27 111 -34 125 -31 59 -87 92 -157 92 -48 0 -78 -15 -181 -86 -43
-30 -81 -54 -85 -54 -11 0 -143 133 -143 143 0 5 25 44 55 87 84 119 101 176
74 247 -25 67 -70 95 -201 123 -51 11 -103 22 -115 25 -22 5 -23 10 -23 100 0
81 2 94 18 99 9 2 66 15 126 27 120 24 166 52 192 116 31 73 16 128 -70 251
-31 44 -56 83 -56 88 0 10 131 144 141 144 4 0 51 -30 105 -67 83 -57 105 -67
150 -71 79 -7 135 24 168 91 14 28 27 58 27 66 1 9 7 -11 14 -44 6 -33 19 -85
28 -117z m124 -312 c48 -96 112 -191 198 -295 l77 -93 -17 -38 c-54 -119 -221
-199 -353 -171 -145 32 -253 151 -268 297 -16 151 86 303 235 348 85 27 93 24
128 -48z m1773 -1716 l0 -80 -335 0 -335 0 0 80 0 80 335 0 335 0 0 -80z m0
-296 c0 -50 -18 -115 -39 -141 -10 -12 -33 -31 -52 -42 -32 -19 -49 -21 -250
-21 -208 0 -217 1 -250 23 -57 38 -79 81 -79 153 l0 64 335 0 335 0 0 -36z"/>
<path d="M3568 4310 c-152 -18 -279 -81 -394 -195 -131 -130 -191 -264 -201
-450 -7 -130 13 -222 71 -340 112 -227 319 -360 577 -373 133 -6 228 14 337
68 179 90 305 246 358 440 23 85 23 251 1 340 -87 334 -405 550 -749 510z
m240 -202 c229 -73 381 -318 343 -550 -40 -243 -254 -427 -496 -428 -324 0
-571 314 -490 625 23 87 62 152 136 228 139 140 320 185 507 125z"/>
<path d="M270 4589 c-29 -39 -48 -74 -43 -78 6 -3 140 -99 300 -213 160 -115
293 -208 296 -208 6 0 96 126 100 140 2 8 -562 416 -589 427 -6 2 -35 -28 -64
-68z"/>
<path d="M1870 4112 c-264 -195 -429 -469 -481 -795 -17 -108 -6 -348 20 -447
64 -245 177 -440 346 -598 97 -91 185 -148 348 -227 180 -87 266 -163 325
-287 25 -55 52 -155 52 -197 l0 -31 91 0 92 0 -7 68 c-11 103 -24 149 -73 249
-31 65 -64 113 -110 163 -79 86 -146 132 -273 190 -175 80 -260 139 -368 255
-128 137 -211 297 -254 489 -26 118 -21 330 10 448 61 227 194 426 374 560 37
28 68 53 68 56 0 5 -90 152 -93 152 -1 0 -31 -22 -67 -48z"/>
<path d="M425 3742 c-187 -47 -341 -85 -342 -86 0 -1 8 -40 19 -89 17 -71 24
-87 37 -83 9 3 162 42 341 86 178 45 326 83 328 85 5 5 -28 144 -37 161 -4 7
-119 -18 -346 -74z"/>
<path d="M4180 1870 l0 -90 300 0 300 0 0 90 0 90 -300 0 -300 0 0 -90z"/>
<path d="M4091 1444 c-29 -36 -52 -67 -50 -69 2 -1 119 -98 259 -215 l255
-212 48 53 c26 30 52 62 58 71 8 15 -30 50 -243 228 -138 115 -257 210 -262
210 -6 0 -35 -30 -65 -66z"/>
<path d="M2480 1230 l0 -130 90 0 90 0 0 130 0 130 -90 0 -90 0 0 -130z"/>
<path d="M3670 980 l0 -300 90 0 90 0 0 300 0 300 -90 0 -90 0 0 -300z"/>
</g>
</svg>
