<?xml version="1.0" standalone="no"?>
<!DOCTYPE svg PUBLIC "-//W3C//DTD SVG 20010904//EN"
 "http://www.w3.org/TR/2001/REC-SVG-20010904/DTD/svg10.dtd">
<svg version="1.0" xmlns="http://www.w3.org/2000/svg"
 width="512.000000pt" height="512.000000pt" viewBox="0 0 512.000000 512.000000"
 preserveAspectRatio="xMidYMid meet">
<metadata>
Created by potrace 1.16, written by Peter Selinger 2001-2019
</metadata>
<g transform="translate(0.000000,512.000000) scale(0.100000,-0.100000)"
fill="#000000" stroke="none">
<path d="M3438 4944 c-40 -21 -58 -63 -58 -138 l0 -64 -53 -17 c-29 -9 -80
-29 -112 -45 l-59 -29 -47 44 c-52 49 -82 60 -137 52 -29 -5 -55 -26 -134
-104 -53 -53 -102 -109 -109 -125 -17 -41 -3 -94 38 -139 l35 -39 -626 0 -626
0 0 138 c0 156 -10 190 -70 230 -34 23 -40 23 -227 20 -188 -3 -192 -3 -218
-28 -49 -46 -55 -68 -55 -220 l0 -140 -157 0 c-178 0 -264 -14 -357 -58 -125
-59 -228 -173 -278 -307 l-23 -60 -3 -1185 c-2 -827 1 -1201 9 -1238 35 -169
172 -323 349 -392 l65 -25 696 -5 696 -5 -124 -175 -123 -175 -143 -5 c-159
-6 -188 -15 -252 -78 -55 -55 -79 -113 -79 -197 0 -85 31 -154 95 -208 82 -71
14 -67 1209 -67 1201 0 1128 -4 1213 70 59 52 90 124 90 210 0 36 -7 81 -16
101 -23 55 -86 119 -142 145 -44 21 -65 24 -182 24 l-131 0 -124 177 -125 178
696 5 696 5 69 27 c174 67 311 222 345 390 8 37 11 409 9 1238 l-3 1185 -22
60 c-77 201 -247 332 -471 360 l-54 7 37 38 c44 45 57 108 32 156 -23 44 -189
202 -221 210 -52 13 -97 -3 -146 -51 l-47 -47 -59 30 c-33 16 -83 37 -111 46
l-53 18 0 59 c0 67 -16 107 -56 138 -24 19 -39 21 -173 21 -110 -1 -153 -5
-173 -16z m-2027 -334 c18 -10 19 -24 19 -273 0 -211 3 -267 14 -283 12 -16
30 -20 123 -24 88 -4 108 -8 111 -21 2 -9 -80 -111 -194 -240 -144 -164 -202
-224 -218 -224 -22 0 -47 27 -334 353 -47 53 -82 101 -80 111 3 13 22 17 111
21 93 4 111 8 123 24 11 16 14 71 14 281 0 190 3 264 12 273 15 15 271 17 299
2z m-421 -424 l0 -33 -72 -5 c-40 -3 -88 -12 -106 -22 -66 -34 -93 -127 -54
-191 10 -16 107 -131 215 -255 139 -158 208 -230 235 -242 90 -42 115 -24 348
242 108 124 205 239 215 255 23 37 24 86 3 132 -25 52 -56 67 -148 73 l-81 5
-3 38 -3 37 621 0 c494 0 621 -3 618 -12 -3 -7 -13 -37 -22 -65 l-18 -53 -64
0 c-133 0 -154 -32 -154 -228 0 -128 2 -142 22 -167 29 -37 76 -55 142 -55 54
0 55 0 66 -37 7 -21 28 -73 48 -116 l36 -78 -47 -47 c-49 -50 -64 -91 -52
-139 7 -31 166 -197 209 -220 50 -26 101 -12 157 43 l48 48 78 -36 c43 -20 95
-41 116 -48 37 -11 37 -12 37 -66 0 -66 18 -113 55 -142 25 -20 39 -22 167
-22 196 0 228 21 228 153 l0 65 53 17 c28 9 81 30 116 47 l63 30 42 -40 c52
-50 75 -62 121 -62 32 0 47 9 113 73 114 108 132 129 141 163 14 49 2 81 -49
137 l-47 51 38 80 c20 45 40 95 44 112 6 32 6 32 80 36 127 6 154 43 154 218
1 186 -23 223 -148 228 l-77 4 -21 65 -21 65 51 -6 c116 -14 244 -104 310
-216 58 -100 57 -75 57 -1142 l0 -978 -2290 0 -2290 0 0 970 c0 674 3 985 11
1022 33 157 144 280 297 329 46 14 91 18 235 18 l177 1 0 -34z m2734 -7 c69
-25 143 -91 181 -160 40 -74 47 -188 15 -271 -28 -75 -98 -149 -175 -185 -50
-23 -73 -28 -140 -28 -67 0 -89 5 -136 28 -66 32 -142 109 -170 171 -60 138
-14 311 108 401 90 66 213 83 317 44z m1114 -2546 c-3 -114 -6 -134 -31 -187
-55 -118 -146 -199 -266 -236 -62 -20 -99 -20 -1981 -20 -1882 0 -1919 0
-1981 20 -120 37 -211 118 -266 236 -25 53 -28 73 -31 187 l-4 127 2282 0
2282 0 -4 -127z m-1802 -620 c22 -32 79 -113 127 -180 l87 -123 -690 0 -690 0
87 123 c48 67 105 148 127 180 l40 57 436 0 436 0 40 -57z m638 -442 c102 -63
94 -220 -15 -276 -24 -13 -178 -15 -1099 -15 -1174 0 -1100 -4 -1153 60 -72
85 -22 226 86 247 21 5 513 7 1092 7 l1054 -1 35 -22z"/>
<path d="M1210 3263 c-97 -51 -142 -163 -108 -265 l15 -44 -139 -159 c-77 -88
-155 -177 -172 -197 -31 -36 -33 -37 -75 -26 -132 34 -272 -81 -271 -223 0
-40 32 -114 63 -147 101 -109 288 -78 357 59 27 52 27 142 0 192 l-21 38 167
190 c156 179 168 190 193 182 14 -4 57 -8 95 -8 l68 0 135 -183 135 -182 -18
-38 c-27 -52 -25 -144 4 -199 66 -127 238 -154 345 -54 61 55 86 161 57 237
-14 35 -14 35 172 227 l153 158 40 -16 c59 -25 151 -17 204 18 98 65 129 183
74 287 -79 150 -289 160 -377 17 -34 -55 -44 -127 -26 -181 l12 -37 -76 -82
c-42 -45 -118 -126 -169 -180 l-92 -99 -53 17 c-36 12 -66 15 -95 11 -23 -4
-49 -8 -58 -9 -10 -1 -65 63 -146 173 l-131 174 26 39 c63 95 29 239 -72 301
-71 44 -143 47 -216 9z m156 -102 c63 -38 70 -128 13 -175 -55 -46 -131 -30
-164 34 -19 37 -19 63 0 100 29 57 96 75 151 41z m1180 -60 c63 -38 70 -128
13 -175 -55 -46 -131 -30 -164 34 -19 37 -19 63 0 100 29 57 96 75 151 41z
m-1822 -645 c44 -18 66 -52 66 -99 0 -85 -107 -139 -173 -87 -30 24 -51 80
-42 112 13 43 64 85 103 87 7 1 28 -5 46 -13z m1156 -1 c39 -20 60 -53 60 -92
0 -69 -43 -113 -112 -113 -90 0 -136 110 -74 179 38 42 79 50 126 26z"/>
<path d="M2207 1650 c-127 -69 -125 -255 4 -320 36 -19 59 -20 349 -20 292 0
313 1 350 20 59 30 95 90 95 159 -1 68 -23 110 -79 149 l-39 27 -321 2 c-304
2 -323 2 -359 -17z m664 -108 c15 -13 22 -30 22 -52 0 -22 -7 -39 -22 -52 -21
-17 -46 -18 -310 -18 -327 0 -331 1 -331 70 0 69 4 70 331 70 264 0 289 -1
310 -18z"/>
</g>
</svg>
